<svg xmlns="http://www.w3.org/2000/svg" viewBox="0 0 18 18" style="margin-top: -20px;">
                                        <defs>
                                          <linearGradient id="active-directory:domain" x1="13.25" y1="13.02" x2="8.62" y2="4.25" gradientUnits="userSpaceOnUse">
                                            <stop offset="0" stop-color="#1988d9"></stop>
                                            <stop offset="0.9" stop-color="#54aef0"></stop>
                                          </linearGradient>
                                          <linearGradient id="active-directory:activedomain" x1="11.26" y1="10.47" x2="14.46" y2="15.99" gradientUnits="userSpaceOnUse">
                                            <stop offset="0.1" stop-color="#54aef0"></stop>
                                            <stop offset="0.29" stop-color="#4fabee"></stop>
                                            <stop offset="0.51" stop-color="#41a2e9"></stop>
                                            <stop offset="0.74" stop-color="#2a93e0"></stop>
                                            <stop offset="0.88" stop-color="#1988d9"></stop>
                                          </linearGradient>
                                        </defs>
                                         
                                        <polygon points="1.01 10.19 8.93 15.33 16.99 10.17 18 11.35 8.93 17.19 0 11.35 1.01 10.19" fill="#50e6ff"></polygon>
                                        <polygon points="1.61 9.53 8.93 0.81 16.4 9.54 8.93 14.26 1.61 9.53" fill="#fff"></polygon>
                                        <polygon points="8.93 0.81 8.93 14.26 1.61 9.53 8.93 0.81" fill="#50e6ff"></polygon>
                                        <polygon points="8.93 0.81 8.93 14.26 16.4 9.54 8.93 0.81" fill="url(#active-directory:domain)"></polygon>
                                        <polygon points="8.93 7.76 16.4 9.54 8.93 14.26 8.93 7.76" fill="#53b1e0"></polygon>
                                        <polygon points="8.93 14.26 1.61 9.53 8.93 7.76 8.93 14.26" fill="#9cebff"></polygon>
                                        <polygon points="8.93 17.19 18 11.35 16.99 10.17 8.93 15.33 8.93 17.19" fill="url(#active-directory:activedomain)"></polygon>
                                      </svg>