<svg xmlns="http://www.w3.org/2000/svg" viewBox="0 0 96.19 96"><defs><style>.cls-1{fill:#59b4d9;}.cls-2{fill:#3999c6;}.cls-3{fill:#fff;}.cls-4{fill:#7fba00;}.cls-5{fill:#b8d432;}</style></defs><title>Icon_data factory V2</title><g id="图层_2" data-name="图层 2"><g id="图层_6" data-name="图层 6"><path class="cls-1" d="M96,56.56h0V33.28L69.64,56.18h-.57V33.28L42.71,56.18h0V8.27c0-4-9-8.08-21-8.08S0,4,0,8.27V96H96.19ZM21.74,12.12C13.08,12.12,6.16,10,6.16,7.7s6.92-4.43,15.58-4.43S37.32,5.19,37.32,7.7C37.13,10,30.2,12.12,21.74,12.12Zm45.4,68.3H56.56V69.84H67.14Zm-18.66,0H37.9V69.84H48.48Zm26.93,0V69.84H86V80.42Z"/><rect class="cls-2" y="7.7" width="21.35" height="88.3"/><path class="cls-3" d="M42.52,7.7c0,4.23-9.62,7.69-21.36,7.69S0,11.93,0,7.7,9.62,0,21.35,0,42.52,3.27,42.52,7.7"/><path class="cls-4" d="M38.28,7.12c0,2.88-7.5,5-16.93,5S4.42,10,4.42,7.12s7.51-5,16.93-5,16.93,2.3,16.93,5"/><path class="cls-5" d="M34.63,10.2c2.31-.77,3.46-1.93,3.46-3.08,0-2.89-7.5-5-16.93-5s-16.93,2.3-16.93,5c.19,1.15,1.54,2.31,3.66,3.08A40.67,40.67,0,0,1,21.35,8.27,40.27,40.27,0,0,1,34.63,10.2"/></g></g></svg>