<svg version="1.1" id="Layer_1" xmlns="http://www.w3.org/2000/svg" xmlns:xlink="http://www.w3.org/1999/xlink" x="0px" y="0px" viewBox="0 0 50 50" width="140px" height="96px" style="enable-background:new 0 0 50 50;" xml:space="preserve">
									<style type="text/css">
										.sqldat0{fill:#00A2D8;}
										.sqldat1{fill:#2ABAEC;}
										.sqldat2{fill:#FFFFFF;}
										.sqldat3{fill:#7FBA00;}
										.sqldat4{fill:#B8D432;}
									</style>
									<path class="sqldat0" d="M24.9,6.8L24.9,6.8H6v36.3c0,3.7,8.3,6.8,18.6,6.8v0h0.2c0,0,0,0,0,0v0l0,0c10.4,0,18.9-3.1,18.9-6.8V6.8H24.9z
										"/>
									<path class="sqldat1" d="M24.6,50h0.3c10.4,0,18.9-3.1,18.9-6.8V6.8H24.6V50z"/>
									<path class="sqldat2" d="M43.7,6.8c0,3.8-8.4,6.8-18.9,6.8S6,10.6,6,6.8C6,3.1,14.4,0,24.9,0S43.7,3.1,43.7,6.8"/>
									<path class="sqldat3" d="M39.9,6.4c0,2.5-6.7,4.5-15,4.5s-15-2-15-4.5s6.7-4.5,15-4.5S39.9,3.9,39.9,6.4"/>
									<path class="sqldat4" d="M36.7,9.2c2-0.8,3.1-1.7,3.1-2.8c0-2.5-6.7-4.5-15-4.5c-8.3,0-15,2-15,4.5c0,1,1.2,2,3.1,2.8
										c2.7-1.1,7-1.8,11.9-1.8C29.7,7.4,34,8.1,36.7,9.2"/>
									<path class="sqldat2" d="M18.3,31.4c0,1.1-0.4,2-1.2,2.6c-0.8,0.6-1.9,0.9-3.4,0.9c-1.2,0-2.2-0.2-3.1-0.7v-2.6c0.9,0.8,2,1.2,3.1,1.2
										c0.6,0,1-0.1,1.3-0.3s0.4-0.5,0.4-0.9c0-0.4-0.1-0.7-0.4-0.9s-0.9-0.6-1.8-1c-1.8-0.8-2.7-2-2.7-3.5c0-1.1,0.4-1.9,1.2-2.6
										c0.8-0.6,1.8-1,3.1-1c1.2,0,2.1,0.2,2.9,0.5v2.5C17,25,16.1,24.7,15,24.7c-0.5,0-0.9,0.1-1.2,0.3c-0.3,0.2-0.4,0.5-0.4,0.9
										c0,0.4,0.1,0.7,0.4,0.9c0.2,0.2,0.7,0.5,1.5,0.9c1.1,0.5,1.9,1.1,2.4,1.6C18.1,29.9,18.3,30.6,18.3,31.4z"/>
									<path class="sqldat2" d="M31,28.7c0,1.4-0.3,2.6-0.9,3.6c-0.6,1-1.5,1.7-2.7,2.2l3.4,3.2h-3.5l-2.5-2.7c-1,0-2-0.3-2.8-0.8
										c-0.8-0.5-1.5-1.2-2-2.1s-0.7-1.9-0.7-3c0-1.2,0.2-2.3,0.7-3.3c0.5-1,1.2-1.7,2.1-2.2c0.9-0.5,1.9-0.8,3.1-0.8
										c1.1,0,2.1,0.3,2.9,0.8c0.9,0.5,1.5,1.2,2,2.1C30.8,26.5,31,27.5,31,28.7z M28.2,28.8c0-1.2-0.3-2.1-0.8-2.8s-1.2-1-2.1-1
										c-0.9,0-1.7,0.3-2.2,1c-0.6,0.7-0.8,1.6-0.8,2.8c0,1.2,0.3,2.1,0.8,2.8c0.5,0.7,1.3,1,2.2,1c0.9,0,1.6-0.3,2.2-1
										C27.9,30.9,28.2,30,28.2,28.8z"/>
									<polygon class="sqldat2" points="40,34.7 33,34.7 33,22.9 35.6,22.9 35.6,32.5 40,32.5 "/>
								</svg>