<?xml version="1.0" encoding="utf-8"?>
<!-- Generator: Adobe Illustrator 23.0.0, SVG Export Plug-In . SVG Version: 6.00 Build 0)  -->
<svg version="1.1" id="图层_1" xmlns="http://www.w3.org/2000/svg" xmlns:xlink="http://www.w3.org/1999/xlink" x="0px" y="0px"
	 viewBox="0 0 140 96" style="enable-background:new 0 0 140 96;" xml:space="preserve">
<style type="text/css">
	.st0{fill:#E3F4FF;}
	.st1{fill:#959595;}
	.st2{fill:#B3B4B5;}
	.st3{fill:#7A7A7A;}
	.st4{opacity:0.4;fill:#FFFFFF;}
	.st5{fill:#59B4D9;}
	.st6{clip-path:url(#SVGID_2_);}
	.st7{fill:#FFFFFF;}
	.st8{fill:#5B616A;}
	.st9{fill:#33B5E0;}
</style>
<g>
	<g>
		<polygon class="st1" points="69,55.9 69,95.3 125.4,84.1 125.4,66.3 		"/>
		<polygon class="st1" points="125.4,62.7 125.4,41.4 69,19.6 69,50.9 		"/>
		<g>
			<polygon class="st2" points="69,50.9 69,19.6 53.3,29.9 53.3,58 			"/>
			<polygon class="st2" points="53.3,63 53.3,86.5 69,95.3 69,55.9 			"/>
		</g>
		<g>
			<polygon class="st2" points="122.7,60.5 122.7,42.4 71.6,23 71.6,48.3 			"/>
			<polygon class="st2" points="71.6,59.7 71.6,93.1 122.7,83.2 122.7,67.7 			"/>
		</g>
		<g>
			<g>
				<polygon class="st1" points="109.7,54.9 109.7,39.9 104.8,38.1 104.8,53.7 				"/>
				<polygon class="st1" points="104.8,68 104.8,83.8 109.7,82.9 109.7,68.6 				"/>
			</g>
			<g>
				<polygon class="st1" points="99.9,52.4 99.9,36.4 94.4,34.5 94.4,51 				"/>
				<polygon class="st1" points="94.4,67 94.4,85.6 99.9,84.7 99.9,67.7 				"/>
			</g>
			<g>
				<polygon class="st1" points="120.3,57.7 120.3,43.5 114.7,41.6 114.7,56.2 				"/>
				<polygon class="st1" points="114.7,69.8 114.7,82 120.3,81.1 120.3,70.4 				"/>
			</g>
			<g>
				<polygon class="st1" points="89.4,49.7 89.4,32.8 84.1,30.9 84.1,48.4 				"/>
				<polygon class="st1" points="84.1,65.2 84.1,87.5 89.4,86.5 89.4,65.9 				"/>
			</g>
			<g>
				<polygon class="st1" points="79.1,47.1 79.1,29.2 74.1,27.5 74.1,45.8 				"/>
				<polygon class="st1" points="74.1,64.2 74.1,89.2 79.1,88.4 79.1,64.8 				"/>
			</g>
		</g>
		<g>
			<polygon class="st1" points="58.2,50.4 58.2,30.4 56.2,31.5 56.2,51.5 			"/>
			<polygon class="st1" points="56.2,65.8 56.2,85.4 58.2,86.3 58.2,64.9 			"/>
		</g>
		<g>
			<polygon class="st1" points="60.9,63.5 60.9,87.5 63.8,88.8 63.8,62 			"/>
			<polygon class="st1" points="63.8,47.5 63.8,27.5 60.9,29 60.9,49 			"/>
		</g>
		<polygon class="st3" points="63.8,29 56.2,33.7 56.2,31.5 63.8,26.8 		"/>
		<polygon class="st3" points="63.8,63.9 56.2,67.3 56.2,65.1 63.8,61.7 		"/>
		<polygon class="st3" points="120.3,44.8 74.1,29.4 74.1,27.2 120.3,42.9 		"/>
		<polygon class="st3" points="120.3,70.9 74.1,65.7 74.1,63.5 120.3,69.3 		"/>
		<polygon class="st4" points="125.4,66.3 94.4,60.6 69,95.3 125.4,84.1 		"/>
		<polygon class="st4" points="97.2,56.8 125.4,62.7 125.4,41.4 112.3,36.3 		"/>
	</g>
	<path class="st5" d="M48.2,73.3v-3V27.1l20.6-12.1l40.5,16.3c0-0.2,0-0.5,0-0.7c0-11.8-9.5-21.3-21.3-21.3c-3.9,0-7.5,1-10.7,2.9
		c-5-6.5-12.9-10.7-21.7-10.7c-15.1,0-27.4,12.3-27.4,27.4c0,0.9,0,1.8,0.1,2.6c-8,3.2-13.6,11-13.6,20.1c0,11.9,9.5,21.5,21.3,21.7
		v0H48.2z"/>
</g>
</svg>
